<svg xmlns="http://www.w3.org/2000/svg" width="24" height="24" viewBox="0 0 24 24"><defs><style id="current-color-scheme" type="text/css">.ColorScheme-Text{color:#d3dae3}</style></defs><path fill="currentColor" d="m4.5 3a3.5 5 0 0 0 -3.5 5 3.5 5 0 0 0 3.5 5 3.5 5 0 0 0 3.5 -5 3.5 5 0 0 0 -3.5 -5zm3.5 5a3.5 5 0 0 0 3.5 5 3.5 5 0 0 0 3.5 -5 3.5 5 0 0 0 -3.5 -5 3.5 5 0 0 0 -3.5 5zm-3 0a2 2 0 0 1 2 2 2 2 0 0 1 -2 2 2 2 0 0 1 -2 -2 2 2 0 0 1 2 -2zm7 0a2 2 0 0 1 2 2 2 2 0 0 1 -2 2 2 2 0 0 1 -2 -2 2 2 0 0 1 2 -2z" class="ColorScheme-Text" transform="translate(4 4)"/></svg>