<svg xmlns="http://www.w3.org/2000/svg" xmlns:svg="http://www.w3.org/2000/svg" xmlns:xlink="http://www.w3.org/1999/xlink" id="svg90" width="22" height="22" version="1.1" viewBox="0 0 22 22"><metadata id="metadata94"/><defs id="defs46"><linearGradient id="linearGradient4202" x1="1" x2="8" y1="8" y2="1" gradientUnits="userSpaceOnUse"><stop id="stop2" offset="0" stop-color="#e81877"/><stop id="stop4" offset=".313" stop-color="#dd1d8c"/><stop id="stop6" offset=".563" stop-color="#6d57b1"/><stop id="stop8" offset=".75" stop-color="#2a78c1"/><stop id="stop10" offset="1" stop-color="#018dcb"/></linearGradient><linearGradient id="linearGradient4204" x1="1" x2="8" y1="8" y2="15" gradientUnits="userSpaceOnUse"><stop id="stop13" offset="0" stop-color="#e51561"/><stop id="stop15" offset=".313" stop-color="#e4156c"/><stop id="stop17" offset=".563" stop-color="#e71e2c"/><stop id="stop19" offset=".75" stop-color="#e8301e"/><stop id="stop21" offset="1" stop-color="#e6320e"/></linearGradient><linearGradient id="linearGradient4206" x1="15" x2="8" y1="8" y2="1" gradientUnits="userSpaceOnUse"><stop id="stop24" offset="0" stop-color="#bec900"/><stop id="stop26" offset=".313" stop-color="#9ec80a"/><stop id="stop28" offset=".563" stop-color="#71b93d"/><stop id="stop30" offset=".75" stop-color="#35a48f"/><stop id="stop32" offset="1" stop-color="#018fca"/></linearGradient><linearGradient id="linearGradient4208" x1="15" x2="8" y1="8" y2="15" gradientUnits="userSpaceOnUse"><stop id="stop35" offset="0" stop-color="#c1cc00"/><stop id="stop37" offset=".313" stop-color="#dfcd00"/><stop id="stop39" offset=".563" stop-color="#f0cc00"/><stop id="stop41" offset=".75" stop-color="#fd8c08"/><stop id="stop43" offset="1" stop-color="#f25c13"/></linearGradient><linearGradient id="linearGradient4590" x1="15" x2="8" y1="8" y2="1" gradientTransform="matrix(0.80906149,0,0,0.80906149,1.5275081,1.5275081)" gradientUnits="userSpaceOnUse" xlink:href="#linearGradient4206"/><linearGradient id="linearGradient4592" x1="1" x2="8" y1="8" y2="1" gradientTransform="matrix(0.80906149,0,0,0.80906149,1.5275081,1.5275081)" gradientUnits="userSpaceOnUse" xlink:href="#linearGradient4202"/><linearGradient id="linearGradient4594" x1="15" x2="8" y1="8" y2="15" gradientTransform="matrix(0.80906149,0,0,0.80906149,1.5275081,1.5275081)" gradientUnits="userSpaceOnUse" xlink:href="#linearGradient4208"/><linearGradient id="linearGradient4596" x1="1" x2="8" y1="8" y2="15" gradientTransform="matrix(0.80906149,0,0,0.80906149,1.5275081,1.5275081)" gradientUnits="userSpaceOnUse" xlink:href="#linearGradient4204"/><linearGradient id="linearGradient4598" x1="15" x2="8" y1="8" y2="1" gradientTransform="matrix(0.80906149,0,0,0.80906149,1.5275081,1.5275081)" gradientUnits="userSpaceOnUse" xlink:href="#linearGradient4206"/><linearGradient id="linearGradient4600" x1="1" x2="8" y1="8" y2="1" gradientTransform="matrix(0.80906149,0,0,0.80906149,1.5275081,1.5275081)" gradientUnits="userSpaceOnUse" xlink:href="#linearGradient4202"/><linearGradient id="linearGradient4602" x1="15" x2="8" y1="8" y2="15" gradientTransform="matrix(0.80906149,0,0,0.80906149,1.5275081,1.5275081)" gradientUnits="userSpaceOnUse" xlink:href="#linearGradient4208"/><linearGradient id="linearGradient4604" x1="1" x2="8" y1="8" y2="15" gradientTransform="matrix(0.80906149,0,0,0.80906149,1.5275081,1.5275081)" gradientUnits="userSpaceOnUse" xlink:href="#linearGradient4204"/><linearGradient id="linearGradient4606" x1="15" x2="8" y1="8" y2="1" gradientTransform="matrix(0.80906149,0,0,0.80906149,1.5275081,1.5275081)" gradientUnits="userSpaceOnUse" xlink:href="#linearGradient4206"/><linearGradient id="linearGradient4608" x1="1" x2="8" y1="8" y2="1" gradientTransform="matrix(0.80906149,0,0,0.80906149,1.5275081,1.5275081)" gradientUnits="userSpaceOnUse" xlink:href="#linearGradient4202"/><linearGradient id="linearGradient4610" x1="15" x2="8" y1="8" y2="15" gradientTransform="matrix(0.80906149,0,0,0.80906149,1.5275081,1.5275081)" gradientUnits="userSpaceOnUse" xlink:href="#linearGradient4208"/><linearGradient id="linearGradient4612" x1="1" x2="8" y1="8" y2="15" gradientTransform="matrix(0.80906149,0,0,0.80906149,1.5275081,1.5275081)" gradientUnits="userSpaceOnUse" xlink:href="#linearGradient4204"/><linearGradient id="linearGradient4614" x1="15" x2="8" y1="8" y2="1" gradientTransform="matrix(0.80906149,0,0,0.80906149,1.5275081,1.5275081)" gradientUnits="userSpaceOnUse" xlink:href="#linearGradient4206"/><linearGradient id="linearGradient4616" x1="1" x2="8" y1="8" y2="1" gradientTransform="matrix(0.80906149,0,0,0.80906149,1.5275081,1.5275081)" gradientUnits="userSpaceOnUse" xlink:href="#linearGradient4202"/><linearGradient id="linearGradient4618" x1="15" x2="8" y1="8" y2="15" gradientTransform="matrix(0.80906149,0,0,0.80906149,1.5275081,1.5275081)" gradientUnits="userSpaceOnUse" xlink:href="#linearGradient4208"/><linearGradient id="linearGradient4620" x1="1" x2="8" y1="8" y2="15" gradientTransform="matrix(0.80906149,0,0,0.80906149,1.5275081,1.5275081)" gradientUnits="userSpaceOnUse" xlink:href="#linearGradient4204"/></defs><g id="g88" transform="matrix(1.236,0,0,1.236,1.112,1.112)"><g id="g56" transform="rotate(15,8,8)"><path id="path48" fill="url(#linearGradient4590)" d="m 8,1 v 7 h 7 A 7,7 0 0 0 8,1 Z"/><path id="path50" fill="url(#linearGradient4592)" d="M 8,1 A 7,7 0 0 0 1,8 h 7 z"/><path id="path52" fill="url(#linearGradient4594)" d="m 8,8 v 7 a 7,7 0 0 0 7,-7 z"/><path id="path54" fill="url(#linearGradient4596)" d="m 1,8 a 7,7 0 0 0 7,7 V 8 Z"/></g><g id="g66" opacity=".7"><path id="path58" fill="url(#linearGradient4598)" d="m 8,1 v 7 h 7 A 7,7 0 0 0 8,1 Z"/><path id="path60" fill="url(#linearGradient4600)" d="M 8,1 A 7,7 0 0 0 1,8 h 7 z"/><path id="path62" fill="url(#linearGradient4602)" d="m 8,8 v 7 a 7,7 0 0 0 7,-7 z"/><path id="path64" fill="url(#linearGradient4604)" d="m 1,8 a 7,7 0 0 0 7,7 V 8 Z"/></g><g id="g76" opacity=".35" transform="rotate(45,8,8)"><path id="path68" fill="url(#linearGradient4606)" d="m 8,1 v 7 h 7 A 7,7 0 0 0 8,1 Z"/><path id="path70" fill="url(#linearGradient4608)" d="M 8,1 A 7,7 0 0 0 1,8 h 7 z"/><path id="path72" fill="url(#linearGradient4610)" d="m 8,8 v 7 a 7,7 0 0 0 7,-7 z"/><path id="path74" fill="url(#linearGradient4612)" d="m 1,8 a 7,7 0 0 0 7,7 V 8 Z"/></g><g id="g86" opacity=".3" transform="rotate(60,8,8)"><path id="path78" fill="url(#linearGradient4614)" d="m 8,1 v 7 h 7 A 7,7 0 0 0 8,1 Z"/><path id="path80" fill="url(#linearGradient4616)" d="M 8,1 A 7,7 0 0 0 1,8 h 7 z"/><path id="path82" fill="url(#linearGradient4618)" d="m 8,8 v 7 a 7,7 0 0 0 7,-7 z"/><path id="path84" fill="url(#linearGradient4620)" d="m 1,8 a 7,7 0 0 0 7,7 V 8 Z"/></g></g></svg>